<mxfile host="Electron" modified="2024-03-09T21:06:46.646Z" agent="Mozilla/5.0 (Windows NT 10.0; Win64; x64) AppleWebKit/537.36 (KHTML, like Gecko) draw.io/23.1.5 Chrome/120.0.6099.109 Electron/28.1.0 Safari/537.36" etag="AhkSawf1Jq59_3cpAAeu" version="23.1.5" type="device">
  <diagram id="Ib9TQcT8DTWy8I6IAeJE" name="Page-1">
    <mxGraphModel dx="1432" dy="1211" grid="1" gridSize="10" guides="1" tooltips="1" connect="1" arrows="1" fold="1" page="1" pageScale="1" pageWidth="850" pageHeight="1100" math="0" shadow="0">
      <root>
        <object label="" page-element="true" type="FunctionFlow" id="0">
          <mxCell />
        </object>
        <mxCell id="1" parent="0" />
        <object label="Start" type="Start" id="xk7Y4A1bgm_LZquDNImR-1">
          <mxCell style="ellipse;whiteSpace=wrap;html=1;aspect=fixed;" vertex="1" parent="1">
            <mxGeometry x="120" y="200" width="80" height="80" as="geometry" />
          </mxCell>
        </object>
      </root>
    </mxGraphModel>
  </diagram>
</mxfile>
